<svg width="537" height="164" viewBox="0 0 537 164" fill="none" xmlns="http://www.w3.org/2000/svg">
<path fill-rule="evenodd" clip-rule="evenodd" d="M33.2934 25.4611C34.7753 18.6439 40.8085 13.7814 47.7849 13.7814H116.096C123.072 13.7814 129.105 18.6439 130.587 25.4611L149.755 113.632C151.764 122.876 144.723 131.613 135.263 131.613H28.6172C19.1578 131.613 12.1162 122.876 14.1257 113.632L33.2934 25.4611ZM60.2141 102.108C65.9768 107.871 73.7904 111.112 81.9402 111.121C90.09 111.112 97.9035 107.871 103.666 102.108C109.429 96.3454 112.67 88.5318 112.679 80.3821C112.679 79.0233 112.139 77.7203 111.178 76.7595C110.217 75.7987 108.914 75.259 107.556 75.259C106.197 75.259 104.894 75.7987 103.933 76.7595C102.972 77.7203 102.433 79.0233 102.433 80.3821C102.433 85.817 100.274 91.0293 96.4305 94.8724C92.5874 98.7154 87.3751 100.874 81.9402 100.874C76.5053 100.874 71.2929 98.7154 67.4499 94.8724C63.6068 91.0293 61.4478 85.817 61.4478 80.3821C61.4478 79.0233 60.908 77.7203 59.9473 76.7595C58.9865 75.7987 57.6834 75.259 56.3247 75.259C54.966 75.259 53.6629 75.7987 52.7021 76.7595C51.7413 77.7203 51.2016 79.0233 51.2016 80.3821C51.2101 88.5318 54.4513 96.3454 60.2141 102.108ZM55.8148 25.4959C50.4869 25.4959 46.1678 29.815 46.1678 35.1429C46.1678 40.4708 50.4869 44.7899 55.8148 44.7899H108.184C113.512 44.7899 117.831 40.4708 117.831 35.1429C117.831 29.815 113.512 25.4959 108.184 25.4959H55.8148Z" fill="url(#paint0_linear_520_31352)"/>
<path fill-rule="evenodd" clip-rule="evenodd" d="M300.435 72.697C300.435 105.235 274.058 131.613 241.52 131.613C230.287 131.613 219.788 128.469 210.856 123.014V150.218H182.604V74.4203H182.629C182.612 73.8479 182.604 73.2734 182.604 72.697C182.604 40.1588 208.981 13.7814 241.52 13.7814C274.058 13.7814 300.435 40.1588 300.435 72.697ZM241.519 105.429C259.596 105.429 274.25 90.7746 274.25 72.6978C274.25 54.6211 259.596 39.9669 241.519 39.9669C223.443 39.9669 208.788 54.6211 208.788 72.6978C208.788 90.7746 223.443 105.429 241.519 105.429ZM369.687 131.613C402.225 131.613 428.602 105.236 428.602 72.6975C428.602 40.1593 402.225 13.7819 369.687 13.7819C337.149 13.7819 310.771 40.1593 310.771 72.6975C310.771 105.236 337.149 131.613 369.687 131.613ZM369.687 105.429C387.763 105.429 402.417 90.775 402.417 72.6983C402.417 54.6215 387.763 39.9674 369.687 39.9674C351.61 39.9674 336.956 54.6215 336.956 72.6983C336.956 90.775 351.61 105.429 369.687 105.429ZM481.621 131.613C507.824 131.613 522.327 115.298 522.327 97.1701C522.327 74.0621 503.158 68.3019 486.673 63.3482C474.237 59.6111 463.329 56.333 463.329 46.412C463.329 37.0185 470.085 32.5689 479.149 32.8985C489.037 33.0633 495.135 38.9961 495.629 46.5768H521.008C519.525 25.8122 503.375 13.7819 479.808 13.7819C456.077 13.7819 439.268 26.3066 439.268 47.0712C439.175 70.5992 458.026 76.0749 474.471 80.8515C487.168 84.5396 498.431 87.811 498.431 98.6533C498.431 106.893 492.004 112.661 481.127 112.661C470.415 112.661 464.317 106.564 463.658 97.3349H438.938C439.268 119.088 457.725 131.613 481.621 131.613Z" fill="#424242"/>
<defs>
<linearGradient id="paint0_linear_520_31352" x1="39.9661" y1="131.613" x2="128.856" y2="23.0839" gradientUnits="userSpaceOnUse">
<stop stop-color="#1264E3"/>
<stop offset="1" stop-color="#72A9FF"/>
</linearGradient>
</defs>
</svg>
