<svg width="779" height="238" viewBox="0 0 779 238" fill="none" xmlns="http://www.w3.org/2000/svg">
<path fill-rule="evenodd" clip-rule="evenodd" d="M436 105.5C436 152.72 397.72 191 350.5 191C334.199 191 318.963 186.438 306 178.521V218H265V108H265.036C265.012 107.17 265 106.336 265 105.5C265 58.2797 303.28 20 350.5 20C397.72 20 436 58.2797 436 105.5ZM350.5 153C376.734 153 398 131.734 398 105.5C398 79.2665 376.734 58 350.5 58C324.266 58 303 79.2665 303 105.5C303 131.734 324.266 153 350.5 153ZM536.5 191C583.72 191 622 152.72 622 105.5C622 58.2797 583.72 20 536.5 20C489.28 20 451 58.2797 451 105.5C451 152.72 489.28 191 536.5 191ZM536.5 153C562.734 153 584 131.734 584 105.5C584 79.2665 562.734 58 536.5 58C510.266 58 489 79.2665 489 105.5C489 131.734 510.266 153 536.5 153ZM698.943 191C736.969 191 758.015 167.323 758.015 141.015C758.015 107.48 730.198 99.1211 706.274 91.932C688.227 86.5087 672.396 81.7514 672.396 67.3538C672.396 53.7217 682.201 47.2643 695.355 47.7427C709.705 47.9818 718.554 56.5916 719.271 67.593H756.102C753.95 37.4587 730.512 20 696.312 20C661.873 20 637.478 38.1762 637.478 68.3105C637.343 102.455 664.701 110.401 688.566 117.333C706.993 122.686 723.337 127.433 723.337 143.168C723.337 155.126 714.01 163.497 698.225 163.497C682.68 163.497 673.831 154.648 672.874 141.255H637C637.478 172.824 664.264 191 698.943 191Z" fill="white"/>
<path fill-rule="evenodd" clip-rule="evenodd" d="M48.3163 36.9499C50.467 27.0566 59.2224 20 69.3468 20H168.481C178.606 20 187.361 27.0566 189.512 36.9499L217.329 164.906C220.245 178.321 210.026 191 196.298 191H41.5302C27.8023 191 17.5834 178.321 20.4996 164.906L48.3163 36.9499ZM87.3846 148.182C95.7477 156.545 107.087 161.249 118.914 161.261C130.741 161.249 142.081 156.545 150.444 148.182C158.807 139.819 163.51 128.479 163.523 116.652C163.523 114.68 162.74 112.789 161.345 111.395C159.951 110.001 158.06 109.217 156.088 109.217C154.116 109.217 152.225 110.001 150.831 111.395C149.437 112.789 148.653 114.68 148.653 116.652C148.653 124.54 145.52 132.104 139.943 137.681C134.366 143.258 126.801 146.391 118.914 146.391C111.027 146.391 103.463 143.258 97.8854 137.681C92.3082 132.104 89.175 124.54 89.175 116.652C89.175 114.68 88.3917 112.789 86.9974 111.395C85.6031 110.001 83.712 109.217 81.7402 109.217C79.7684 109.217 77.8773 110.001 76.483 111.395C75.0887 112.789 74.3054 114.68 74.3054 116.652C74.3177 128.479 79.0215 139.819 87.3846 148.182ZM81 37C73.268 37 67 43.268 67 51C67 58.732 73.268 65 81 65H157C164.732 65 171 58.732 171 51C171 43.268 164.732 37 157 37H81Z" fill="url(#paint0_linear_518_4376)"/>
<defs>
<linearGradient id="paint0_linear_518_4376" x1="58" y1="191" x2="187" y2="33.5" gradientUnits="userSpaceOnUse">
<stop stop-color="#1264E3"/>
<stop offset="1" stop-color="#72A9FF"/>
</linearGradient>
</defs>
</svg>
